<?xml version="1.0" encoding="UTF-8" standalone="no"?>
<svg
   width="284"
   height="193"
   fill="none"
   version="1.1"
   id="svg9032"
   sodipodi:docname="shield.svg"
   xml:space="preserve"
   inkscape:version="1.2 (dc2aeda, 2022-05-15)"
   xmlns:inkscape="http://www.inkscape.org/namespaces/inkscape"
   xmlns:sodipodi="http://sodipodi.sourceforge.net/DTD/sodipodi-0.dtd"
   xmlns="http://www.w3.org/2000/svg"
   xmlns:svg="http://www.w3.org/2000/svg"><defs
     id="defs9036" /><sodipodi:namedview
     id="namedview9034"
     pagecolor="#ffffff"
     bordercolor="#000000"
     borderopacity="0.25"
     inkscape:showpageshadow="2"
     inkscape:pageopacity="0.0"
     inkscape:pagecheckerboard="0"
     inkscape:deskcolor="#d1d1d1"
     showgrid="false"
     inkscape:zoom="4.3873239"
     inkscape:cx="105.8732"
     inkscape:cy="96.414126"
     inkscape:window-width="1390"
     inkscape:window-height="846"
     inkscape:window-x="0"
     inkscape:window-y="38"
     inkscape:window-maximized="0"
     inkscape:current-layer="svg9032" /><ellipse
     cx="231"
     cy="52.5"
     rx="53"
     ry="52.5"
     fill="#FEEFC3"
     id="ellipse9022" /><ellipse
     cx="99.5"
     cy="149"
     rx="44.5"
     ry="44"
     fill="#FEEFC3"
     id="ellipse9024" /><ellipse
     cx="31.5"
     cy="35"
     rx="31.5"
     ry="32"
     fill="#FEEFC3"
     id="ellipse9026" /><ellipse
     cx="137.5"
     cy="91"
     rx="71.5"
     ry="72"
     fill="#F9AB00"
     id="ellipse9028" /><g
     style="fill:#fcefc6;fill-opacity:1"
     id="g302"
     transform="matrix(3.0656099,0,0,2.8462279,102.36357,58.384592)"><path
       d="M 12,22 Q 8.525,21.125 6.263,18.012 4,14.9 4,11.1 V 5 l 8,-3 8,3 v 6.1 q 0,3.8 -2.262,6.912 Q 15.475,21.125 12,22 Z m 0,-2.1 q 2.425,-0.75 4.05,-2.962 1.625,-2.213 1.9,-4.938 H 12 V 4.125 L 6,6.375 V 11.55 Q 6,11.725 6.05,12 H 12 Z"
       id="path293"
       style="fill:#fcefc6;fill-opacity:1" /></g></svg>
